ply
format ascii 1.0
element vertex 708
property float x
property float y
property float z
property uchar red
property uchar green
property uchar blue
element face 472
property list uchar int vertex_index
end_header
-1.320440 -0.825798 -0.815703 74 74 74
-0.947154 -0.826017 -0.815703 74 74 74
-1.507084 -0.827664 -0.492432 74 74 74
-0.760512 -0.828102 -0.492432 74 74 74
-1.320442 -0.829748 -0.169161 74 74 74
-0.947156 -0.829967 -0.169161 74 74 74
-1.130850 -0.825984 -0.811518 73 73 73
-0.762177 -0.826227 -0.811518 73 73 73
-1.315187 -0.827717 -0.492242 73 73 73
-0.577842 -0.828205 -0.492242 73 73 73
-1.130852 -0.829695 -0.172966 73 73 73
-0.762180 -0.829939 -0.172966 73 73 73
-0.928380 -0.832194 -0.793878 74 74 74
-0.581340 -0.829045 -0.793878 74 74 74
-1.101928 -0.830659 -0.493335 74 74 74
-0.407849 -0.824362 -0.493335 74 74 74
-0.928436 -0.825976 -0.192792 74 74 74
-0.581397 -0.822827 -0.192792 74 74 74
-0.729669 -0.828505 -0.781940 72 72 72
-0.397458 -0.832428 -0.781940 72 72 72
-0.895735 -0.823216 -0.494235 72 72 72
-0.231314 -0.831063 -0.494235 72 72 72
-0.729591 -0.821851 -0.206529 72 72 72
-0.397380 -0.825774 -0.206529 72 72 72
-0.544336 -0.826315 -0.789200 72 72 72
-0.201410 -0.826344 -0.789200 72 72 72
-0.715800 -0.827941 -0.492220 72 72 72
-0.029947 -0.827999 -0.492220 72 72 72
-0.544337 -0.829597 -0.195240 72 72 72
-0.201411 -0.829626 -0.195240 72 72 72
-0.350994 -0.826300 -0.785823 75 75 75
-0.012270 -0.826445 -0.785823 75 75 75
-0.520357 -0.827718 -0.492481 75 75 75
0.157091 -0.828007 -0.492481 75 75 75
-0.350995 -0.829280 -0.199140 75 75 75
-0.012271 -0.829424 -0.199140 75 75 75
-0.159417 -0.826382 -0.784895 74 74 74
0.178538 -0.826353 -0.784895 74 74 74
-0.328394 -0.827999 -0.492220 74 74 74
0.347516 -0.827941 -0.492220 74 74 74
-0.159417 -0.829588 -0.199545 74 74 74
0.178539 -0.829559 -0.199545 74 74 74
0.029931 -0.825781 -0.788408 77 77 77
0.371541 -0.824872 -0.788408 77 77 77
-0.140867 -0.828733 -0.492573 77 77 77
0.542353 -0.826916 -0.492573 77 77 77
0.029944 -0.830777 -0.196738 77 77 77
0.371554 -0.829869 -0.196738 77 77 77
0.214830 -0.822322 -0.799308 75 75 75
0.568997 -0.822322 -0.799308 75 75 75
0.037747 -0.827798 -0.492638 75 75 75
0.746081 -0.827798 -0.492638 75 75 75
0.214830 -0.833274 -0.185967 75 75 75
0.568997 -0.833274 -0.185967 75 75 75
0.402643 -0.822254 -0.805187 76 76 76
0.763458 -0.821976 -0.805187 76 76 76
0.222240 -0.828025 -0.492761 76 76 76
0.943870 -0.827470 -0.492761 76 76 76
0.402652 -0.833519 -0.180335 76 76 76
0.763467 -0.833241 -0.180335 76 76 76
0.591540 -0.824292 -0.805022 76 76 76
0.950445 -0.824983 -0.805022 76 76 76
0.412081 -0.827145 -0.494215 76 76 76
1.129892 -0.828526 -0.494215 76 76 76
0.591527 -0.830689 -0.183407 76 76 76
0.950433 -0.831379 -0.183407 76 76 76
0.773317 -0.826251 -0.807051 76 76 76
1.138773 -0.826076 -0.807051 76 76 76
0.590589 -0.828124 -0.490559 76 76 76
1.321502 -0.827774 -0.490559 76 76 76
0.773318 -0.829821 -0.174068 76 76 76
1.138775 -0.829646 -0.174068 76 76 76
0.951385 -0.826216 -0.808374 76 76 76
1.316210 -0.825820 -0.808374 76 76 76
0.768974 -0.828280 -0.492430 76 76 76
1.498625 -0.827488 -0.492430 76 76 76
0.951389 -0.829948 -0.176485 76 76 76
1.316214 -0.829552 -0.176485 76 76 76
-1.762652 -0.838869 -0.401168 100 100 100
-1.178953 -0.839853 -0.401168 100 100 100
-2.054487 -0.829900 0.104262 100 100 100
-0.887089 -0.831868 0.104262 100 100 100
-1.762623 -0.821914 0.609693 100 100 100
-1.178924 -0.822898 0.609693 100 100 100
-1.516036 -0.839895 -0.393833 108 108 108
-0.940033 -0.839777 -0.393833 108 108 108
-1.804039 -0.831213 0.104926 108 108 108
-0.652034 -0.830978 0.104926 108 108 108
-1.516039 -0.822413 0.603684 108 108 108
-0.940037 -0.822296 0.603684 108 108 108
-1.269489 -0.836417 -0.398505 85 85 85
-0.689498 -0.832320 -0.398505 85 85 85
-1.559510 -0.834828 0.103784 85 85 85
-0.399528 -0.826634 0.103784 85 85 85
-1.269540 -0.829142 0.606073 85 85 85
-0.689549 -0.825045 0.606073 85 85 85
-1.016534 -0.826619 -0.396383 78 78 78
-0.444069 -0.830225 -0.396383 78 78 78
-1.302772 -0.825726 0.099398 78 78 78
-0.157842 -0.832938 0.099398 78 78 78
-1.016545 -0.828439 0.595179 78 78 78
-0.444080 -0.832045 0.595179 78 78 78
-0.765707 -0.831206 -0.382386 76 76 76
-0.202123 -0.831095 -0.382386 76 76 76
-1.047499 -0.831451 0.105695 76 76 76
0.079669 -0.831230 0.105695 76 76 76
-0.765707 -0.831586 0.593776 76 76 76
-0.202123 -0.831476 0.593776 76 76 76
-0.508330 -0.833866 -0.367313 87 87 87
0.036960 -0.834245 -0.367313 87 87 87
-0.780973 -0.830714 0.104915 87 87 87
0.309607 -0.831470 0.104915 87 87 87
-0.508326 -0.827939 0.577144 87 87 87
0.036964 -0.828318 0.577144 87 87 87
-0.250615 -0.838887 -0.350393 106 106 106
0.275423 -0.838971 -0.350393 106 106 106
-0.513633 -0.831069 0.105106 106 106 106
0.538444 -0.831236 0.105106 106 106 106
-0.250613 -0.823335 0.560605 106 106 106
0.275426 -0.823419 0.560605 106 106 106
-0.003665 -0.839019 -0.353109 104 104 104
0.524541 -0.838257 -0.353109 104 104 104
-0.267779 -0.831648 0.104267 104 104 104
0.788633 -0.830123 0.104267 104 104 104
-0.003687 -0.823514 0.561644 104 104 104
0.524518 -0.822751 0.561644 104 104 104
0.241760 -0.839882 -0.357330 101 101 101
0.775376 -0.838177 -0.357330 101 101 101
-0.025073 -0.832737 0.104730 101 101 101
1.042158 -0.829328 0.104730 101 101 101
0.241709 -0.823888 0.566790 101 101 101
0.775325 -0.822184 0.566790 101 101 101
0.469040 -0.831198 -0.392972 76 76 76
1.044639 -0.830890 -0.392972 76 76 76
0.181241 -0.831590 0.105513 76 76 76
1.332438 -0.830975 0.105513 76 76 76
0.469041 -0.831675 0.603999 76 76 76
1.044639 -0.831368 0.603999 76 76 76
0.704945 -0.831218 -0.410957 75 75 75
1.298454 -0.830822 -0.410957 75 75 75
0.408191 -0.831666 0.103039 75 75 75
1.595209 -0.830874 0.103039 75 75 75
0.704946 -0.831718 0.617036 75 75 75
1.298455 -0.831322 0.617036 75 75 75
0.940737 -0.831001 -0.413680 72 72 72
1.543395 -0.831038 -0.413680 72 72 72
0.639408 -0.831304 0.108240 72 72 72
1.844724 -0.831377 0.108240 72 72 72
0.940737 -0.831643 0.630160 72 72 72
1.543395 -0.831679 0.630160 72 72 72
1.260618 -0.880308 -0.274962 68 68 68
1.651802 -0.768829 -0.274962 68 68 68
1.064374 -0.933759 0.077295 68 68 68
1.846742 -0.710800 0.077295 68 68 68
1.259314 -0.875731 0.429552 68 68 68
1.650498 -0.764251 0.429552 68 68 68
-2.240852 -0.989554 0.877487 105 105 105
-1.874117 -0.989659 0.877487 105 105 105
-2.424170 -0.815236 1.143013 105 105 105
-1.690700 -0.815446 1.143013 105 105 105
-2.240752 -0.641023 1.408538 105 105 105
-1.874017 -0.641128 1.408538 105 105 105
-1.897708 -0.986931 0.881559 107 107 107
-1.536831 -0.986870 0.881559 107 107 107
-2.078175 -0.815344 1.142754 107 107 107
-1.356421 -0.815222 1.142754 107 107 107
-1.897766 -0.643696 1.403949 107 107 107
-1.536889 -0.643635 1.403949 107 107 107
-1.544943 -0.981291 0.891094 99 99 99
-1.196433 -0.981711 0.891094 99 99 99
-1.718998 -0.814933 1.143068 99 99 99
-1.021977 -0.815774 1.143068 99 99 99
-1.544542 -0.648996 1.395042 99 99 99
-1.196032 -0.649416 1.395042 99 99 99
-1.193389 -0.976964 0.899910 81 81 81
-0.855190 -0.978032 0.899910 81 81 81
-1.361978 -0.814485 1.143957 81 81 81
-0.685579 -0.816620 1.143957 81 81 81
-1.192367 -0.653073 1.388005 81 81 81
-0.854168 -0.654140 1.388005 81 81 81
-0.842605 -0.974358 0.904745 79 79 79
-0.511039 -0.974558 0.904745 79 79 79
-1.008292 -0.815341 1.143907 79 79 79
-0.345159 -0.815741 1.143907 79 79 79
-0.842413 -0.656524 1.383069 79 79 79
-0.510846 -0.656725 1.383069 79 79 79
-0.493169 -0.972763 0.906973 88 88 88
-0.165442 -0.972056 0.906973 88 88 88
-0.657371 -0.816141 1.143434 88 88 88
-0.001917 -0.814729 1.143434 88 88 88
-0.493846 -0.658814 1.379895 88 88 88
-0.166119 -0.658108 1.379895 88 88 88
-0.147063 -0.970983 0.905812 111 111 111
0.181160 -0.971619 0.905812 111 111 111
-0.310873 -0.814822 1.143535 111 111 111
0.345574 -0.816093 1.143535 111 111 111
-0.146460 -0.659297 1.381257 111 111 111
0.181764 -0.659933 1.381257 111 111 111
0.199932 -0.972157 0.904741 106 106 106
0.528956 -0.971798 0.904741 106 106 106
0.035249 -0.815637 1.142730 106 106 106
0.693297 -0.814918 1.142730 106 106 106
0.199590 -0.658758 1.380719 106 106 106
0.528614 -0.658398 1.380719 106 106 106
0.544470 -0.974064 0.902963 95 95 95
0.877222 -0.974998 0.902963 95 95 95
0.378540 -0.814450 1.143206 95 95 95
1.044045 -0.816318 1.143206 95 95 95
0.545363 -0.655770 1.383449 95 95 95
0.878115 -0.656704 1.383449 95 95 95
0.888681 -0.977981 0.899152 69 69 69
1.227992 -0.978271 0.899152 69 69 69
0.719165 -0.815257 1.143932 69 69 69
1.397786 -0.815837 1.143932 69 69 69
0.888959 -0.652822 1.388713 69 69 69
1.228270 -0.653112 1.388713 69 69 69
1.262278 -0.987093 0.836538 63 63 63
1.607059 -0.874055 0.836538 63 63 63
1.050951 -0.924850 1.124841 63 63 63
1.740513 -0.698774 1.124841 63 63 63
1.184405 -0.749569 1.413145 63 63 63
1.529186 -0.636531 1.413145 63 63 63
1.507056 -0.956847 0.415365 78 78 78
1.650575 -0.524878 0.415365 78 78 78
1.433284 -1.172162 0.809564 78 78 78
1.720323 -0.308225 0.809564 78 78 78
1.503031 -0.955509 1.203763 78 78 78
1.646550 -0.523541 1.203763 78 78 78
1.604338 -0.818099 0.024672 101 101 101
1.604338 -0.453377 0.024672 101 101 101
1.604225 -1.000460 0.340532 101 101 101
1.604225 -0.271016 0.340532 101 101 101
1.604111 -0.818099 0.656393 101 101 101
1.604111 -0.453377 0.656393 101 101 101
-1.967937 -0.479249 1.498983 126 126 126
-2.143480 -0.245041 1.498983 126 126 126
-2.082998 -0.748379 1.499101 126 126 126
-2.434083 -0.279961 1.499101 126 126 126
-2.373601 -0.783300 1.499220 126 126 126
-2.549143 -0.549091 1.499220 126 126 126
-1.985084 -0.784084 1.499020 149 149 149
-1.701456 -0.735531 1.499020 149 149 149
-2.168946 -0.562731 1.499161 149 149 149
-1.601691 -0.465625 1.499161 149 149 149
-2.069181 -0.292824 1.499301 149 149 149
-1.785553 -0.244271 1.499301 149 149 149
-1.259676 -0.381810 1.499053 156 156 156
-1.496718 -0.235996 1.499053 156 156 156
-1.267434 -0.660002 1.499240 156 156 156
-1.741518 -0.368374 1.499240 156 156 156
-1.512234 -0.792380 1.499428 156 156 156
-1.749276 -0.646566 1.499428 156 156 156
-0.907539 -0.677319 1.498939 146 146 146
-0.874317 -0.408625 1.498939 146 146 146
-1.156846 -0.782895 1.499343 146 146 146
-1.090403 -0.245507 1.499343 146 146 146
-1.372932 -0.619777 1.499746 146 146 146
-1.339711 -0.351083 1.499746 146 146 146
-0.611022 -0.284074 1.498792 136 136 136
-0.876199 -0.285059 1.498792 136 136 136
-0.477581 -0.513233 1.499467 136 136 136
-1.007936 -0.515201 1.499467 136 136 136
-0.609317 -0.743376 1.500143 136 136 136
-0.874495 -0.744360 1.500143 136 136 136
-0.105077 -0.462579 1.498511 142 142 142
-0.278199 -0.266019 1.498511 142 142 142
-0.188741 -0.710787 1.499541 142 142 142
-0.534985 -0.317666 1.499541 142 142 142
-0.445527 -0.762434 1.500570 142 142 142
-0.618650 -0.565874 1.500570 142 142 142
-0.227509 -0.598921 1.499480 154 154 154
-0.030888 -0.770097 1.499480 154 154 154
-0.177575 -0.343053 1.499565 154 154 154
0.215666 -0.685406 1.499565 154 154 154
0.068979 -0.258362 1.499649 154 154 154
0.265600 -0.429539 1.499649 154 154 154
0.275732 -0.283516 1.499256 152 152 152
0.138042 -0.506449 1.499256 152 152 152
0.537643 -0.291293 1.499535 152 152 152
0.262264 -0.737159 1.499535 152 152 152
0.661865 -0.522003 1.499814 152 152 152
0.524175 -0.744936 1.499814 152 152 152
0.791534 -0.248805 1.499087 132 132 132
0.556338 -0.372257 1.499087 132 132 132
1.016045 -0.390766 1.499469 132 132 132
0.545653 -0.637669 1.499469 132 132 132
1.005359 -0.656178 1.499851 132 132 132
0.770163 -0.779630 1.499851 132 132 132
1.424674 -0.580099 1.498644 107 107 107
1.350263 -0.319417 1.498644 107 107 107
1.236121 -0.774882 1.499331 107 107 107
1.087300 -0.253517 1.499331 107 107 107
0.973158 -0.708983 1.500017 107 107 107
0.898747 -0.448300 1.500017 107 107 107
1.714830 -0.640610 1.333182 93 93 93
1.714769 -0.378581 1.333182 93 93 93
1.519705 -0.771669 1.448981 93 93 93
1.519584 -0.247611 1.448981 93 93 93
1.324519 -0.640700 1.564780 93 93 93
1.324459 -0.378671 1.564780 93 93 93
1.605704 -0.682311 0.436994 120 120 120
1.605776 -0.181116 0.436994 120 120 120
1.605247 -0.932908 0.871043 120 120 120
1.605391 0.069481 0.871043 120 120 120
1.604862 -0.682311 1.305093 120 120 120
1.604933 -0.181116 1.305093 120 120 120
1.604342 -0.545325 0.028577 133 133 133
1.604342 -0.185100 0.028577 133 133 133
1.604231 -0.725438 0.340543 133 133 133
1.604231 -0.004987 0.340543 133 133 133
1.604119 -0.545325 0.652509 133 133 133
1.604119 -0.185100 0.652509 133 133 133
-1.971417 -0.085111 1.498698 147 147 147
-2.156711 0.139446 1.498698 147 147 147
-2.073242 -0.357860 1.499096 147 147 147
-2.443831 0.091254 1.499096 147 147 147
-2.360362 -0.406052 1.499493 147 147 147
-2.545657 -0.181495 1.499493 147 147 147
-1.600022 -0.110529 1.498651 166 166 166
-1.762389 0.125149 1.498651 166 166 166
-1.722943 -0.368983 1.499142 166 166 166
-2.047677 0.102373 1.499142 166 166 166
-2.008230 -0.391758 1.499632 166 166 166
-2.170597 -0.156080 1.499632 166 166 166
-1.780610 -0.137884 1.498722 173 173 173
-1.638580 -0.374736 1.498722 173 173 173
-1.646504 0.103545 1.499235 173 173 173
-1.362444 -0.370160 1.499235 173 173 173
-1.370368 0.108120 1.499748 173 173 173
-1.228338 -0.128732 1.499748 173 173 173
-1.002879 0.107428 1.485056 165 165 165
-1.271202 0.090550 1.485056 165 165 165
-0.854114 -0.116293 1.495117 165 165 165
-1.390762 -0.150048 1.495117 165 165 165
-0.973673 -0.356891 1.505177 165 165 165
-1.241997 -0.373769 1.505177 165 165 165
-0.801167 0.122647 1.493618 161 161 161
-0.993371 -0.056264 1.493618 161 161 161
-0.550142 0.045669 1.497250 161 161 161
-0.934551 -0.312153 1.497250 161 161 161
-0.491322 -0.210219 1.500882 161 161 161
-0.683526 -0.389130 1.500882 161 161 161
-0.337108 0.125268 1.499409 167 167 167
-0.573428 0.017416 1.499409 167 167 167
-0.125544 -0.025466 1.499555 167 167 167
-0.598185 -0.241171 1.499555 167 167 167
-0.150301 -0.284053 1.499701 167 167 167
-0.386622 -0.391905 1.499701 167 167 167
0.066496 -0.387640 1.499294 173 173 173
0.263019 -0.219388 1.499294 173 173 173
-0.177478 -0.301571 1.499568 173 173 173
0.215569 0.034934 1.499568 173 173 173
-0.224928 -0.047250 1.499841 173 173 173
-0.028404 0.121002 1.499841 173 173 173
0.427548 -0.391829 1.499299 169 169 169
0.637628 -0.238679 1.499299 169 169 169
0.189876 -0.286468 1.499559 169 169 169
0.610036 0.019831 1.499559 169 169 169
0.162284 -0.027958 1.499819 169 169 169
0.372364 0.125191 1.499819 169 169 169
1.011442 -0.005863 1.498063 152 152 152
0.785764 0.130111 1.498063 152 152 152
1.006525 -0.269290 1.499464 152 152 152
0.555170 0.002659 1.499464 152 152 152
0.775931 -0.396742 1.500866 152 152 152
0.550254 -0.260768 1.500866 152 152 152
1.193861 -0.400657 1.498864 129 129 129
1.409316 -0.239146 1.498864 129 129 129
0.946261 -0.294823 1.499348 129 129 129
1.377170 0.028200 1.499348 129 129 129
0.914115 -0.027478 1.499832 129 129 129
1.129569 0.134034 1.499832 129 129 129
1.714347 -0.260409 1.329804 116 116 116
1.713717 -0.001610 1.329804 116 116 116
1.522033 -0.390278 1.444377 116 116 116
1.520771 0.127319 1.444377 116 116 116
1.329088 -0.261348 1.558949 116 116 116
1.328457 -0.002550 1.558949 116 116 116
1.601238 -0.360398 0.407070 108 108 108
1.588073 0.138376 0.407070 108 108 108
1.606691 -0.609815 0.839172 108 108 108
1.580363 0.387733 0.839172 108 108 108
1.598980 -0.360457 1.271274 108 108 108
1.585816 0.138316 1.271274 108 108 108
1.610001 -0.265546 0.037417 129 129 129
1.606410 0.076363 0.037417 129 129 129
1.604013 -0.436582 0.333434 129 129 129
1.596831 0.247235 0.333434 129 129 129
1.594435 -0.265710 0.629451 129 129 129
1.590844 0.076199 0.629451 129 129 129
-2.009512 0.096404 1.498962 141 141 141
-2.003114 0.387641 1.498962 141 141 141
-2.264930 -0.043674 1.499088 141 141 141
-2.252135 0.538799 1.499088 141 141 141
-2.513951 0.107485 1.499214 141 141 141
-2.507553 0.398721 1.499214 141 141 141
-1.708284 0.472553 1.498967 154 154 154
-1.991641 0.513373 1.498967 154 154 154
-1.601956 0.206746 1.499151 154 154 154
-2.168672 0.288387 1.499151 154 154 154
-1.778987 -0.018240 1.499336 154 154 154
-2.062345 0.022580 1.499336 154 154 154
-1.762415 0.180869 1.474499 155 155 155
-1.572426 -0.017791 1.474499 155 155 155
-1.685363 0.444735 1.475047 155 155 155
-1.305386 0.047414 1.475047 155 155 155
-1.418323 0.509940 1.475594 155 155 155
-1.228335 0.311279 1.475594 155 155 155
-0.789883 0.347585 1.010360 106 106 106
-1.002283 0.455785 1.010360 106 106 106
-0.777228 0.109853 1.022405 106 106 106
-1.202028 0.326254 1.022405 106 106 106
-0.976973 -0.019678 1.034449 106 106 106
-1.189373 0.088522 1.034449 106 106 106
-0.569110 0.247302 1.099013 126 126 126
-0.457890 0.025299 1.099013 126 126 126
-0.443280 0.449202 1.170139 126 126 126
-0.220840 0.005196 1.170139 126 126 126
-0.206230 0.429099 1.241265 126 126 126
-0.095010 0.207096 1.241265 126 126 126
-0.377530 0.294927 1.015640 156 156 156
0.065849 -0.149047 1.015640 156 156 156
-0.424334 0.691566 1.499570 156 156 156
0.462425 -0.196381 1.499570 156 156 156
-0.027758 0.644231 1.983499 156 156 156
0.415622 0.200258 1.983499 156 156 156
0.069212 0.189935 1.224481 156 156 156
0.402452 -0.088130 1.224481 156 156 156
0.066713 0.525655 1.499538 156 156 156
0.733194 -0.030474 1.499538 156 156 156
0.397455 0.583311 1.774595 156 156 156
0.730696 0.305246 1.774595 156 156 156
0.556159 0.037587 1.302928 145 145 145
0.914981 -0.029168 1.302928 145 145 145
0.422025 0.314340 1.499463 145 145 145
1.139670 0.180831 1.499463 145 145 145
0.646714 0.524340 1.695998 145 145 145
1.005536 0.457585 1.695998 145 145 145
0.990295 0.006551 1.343621 130 130 130
1.324489 0.000637 1.343621 130 130 130
0.827516 0.253492 1.499329 130 130 130
1.495904 0.241663 1.499329 130 130 130
0.998930 0.494518 1.655036 130 130 130
1.333125 0.488604 1.655036 130 130 130
1.474810 -0.021509 1.240082 121 121 121
1.771043 0.142011 1.240082 121 121 121
1.225168 0.080656 1.444372 121 121 121
1.817633 0.407695 1.444372 121 121 121
1.271759 0.346340 1.648662 121 121 121
1.567991 0.509860 1.648662 121 121 121
1.540255 -0.039948 0.323461 93 93 93
1.557596 0.438223 0.323461 93 93 93
1.529098 -0.278944 0.737836 93 93 93
1.563780 0.677398 0.737836 93 93 93
1.535282 -0.039768 1.152212 93 93 93
1.552623 0.438403 1.152212 93 93 93
1.573432 0.001433 -0.023985 129 129 129
1.567622 0.344094 -0.023985 129 129 129
1.573003 -0.169954 0.272794 129 129 129
1.561384 0.515368 0.272794 129 129 129
1.566765 0.001320 0.569573 129 129 129
1.560955 0.343981 0.569573 129 129 129
-2.061504 0.845968 1.498861 130 130 130
-2.348414 0.907834 1.498861 130 130 130
-1.971627 0.566564 1.499095 130 130 130
-2.545445 0.690295 1.499095 130 130 130
-2.168659 0.349025 1.499328 130 130 130
-2.455568 0.410890 1.499328 130 130 130
-1.635367 0.483755 1.498978 137 137 137
-1.635041 0.772554 1.498978 137 137 137
-1.885638 0.339639 1.499147 137 137 137
-1.884986 0.917236 1.499147 137 137 137
-2.135584 0.484321 1.499316 137 137 137
-2.135257 0.773119 1.499316 137 137 137
-1.328786 0.847023 1.459870 129 129 129
-1.603891 0.874127 1.459870 129 129 129
-1.214706 0.595223 1.460256 129 129 129
-1.764916 0.649429 1.460256 129 129 129
-1.375731 0.370525 1.460643 129 129 129
-1.650836 0.397629 1.460643 129 129 129
-0.880261 0.302299 0.829063 85 85 85
-0.716529 0.462824 0.829063 85 85 85
-1.101056 0.363740 0.836238 85 85 85
-0.773592 0.684792 0.836238 85 85 85
-1.158119 0.585708 0.843413 85 85 85
-0.994387 0.746233 0.843413 85 85 85
-0.720966 0.719171 0.826981 84 84 84
-0.838799 0.534897 0.826981 84 84 84
-0.503049 0.709636 0.843212 84 84 84
-0.738715 0.341088 0.843212 84 84 84
-0.402966 0.515827 0.859443 84 84 84
-0.520799 0.331553 0.859443 84 84 84
-0.574432 0.766118 0.664175 128 128 128
0.156705 0.035038 0.664175 128 128 128
-0.712091 1.359584 1.499576 128 128 128
0.750183 -0.102575 1.499576 128 128 128
-0.118614 1.221972 2.334976 128 128 128
0.612523 0.490892 2.334976 128 128 128
-0.024446 0.592050 1.083167 137 137 137
0.426955 0.203394 1.083167 137 137 137
-0.051446 1.017157 1.499550 137 137 137
0.851356 0.239844 1.499550 137 137 137
0.372955 1.053608 1.915933 137 137 137
0.824356 0.664951 1.915933 137 137 137
0.565661 0.338238 1.159841 133 133 133
0.992861 0.361298 1.159841 133 133 133
0.337779 0.591306 1.418797 133 133 133
1.192178 0.637426 1.418797 133 133 133
0.537096 0.867435 1.677754 133 133 133
0.964295 0.890495 1.677754 133 133 133
1.013266 0.316054 1.169158 123 123 123
1.365584 0.414798 1.169158 123 123 123
0.769331 0.508508 1.362384 123 123 123
1.473966 0.705996 1.362384 123 123 123
0.877713 0.799705 1.555610 123 123 123
1.230031 0.898449 1.555610 123 123 123
1.277414 0.316828 -0.149238 132 132 132
1.256108 0.479948 -0.149238 132 132 132
1.193420 0.222905 -0.043474 132 132 132
1.150808 0.549146 -0.043474 132 132 132
1.088120 0.292103 0.062290 132 132 132
1.066814 0.455223 0.062290 132 132 132
1.239052 0.500504 -0.348638 130 130 130
1.094541 0.429711 -0.348638 130 130 130
1.371858 0.412298 -0.326788 130 130 130
1.082837 0.270712 -0.326788 130 130 130
1.360154 0.253299 -0.304937 130 130 130
1.215643 0.182506 -0.304937 130 130 130
-2.164751 1.064008 0.928158 111 111 111
-1.752562 0.651927 0.928158 111 111 111
-2.251837 1.389088 1.404028 111 111 111
-1.427459 0.564925 1.404028 111 111 111
-1.926734 1.302086 1.879898 111 111 111
-1.514545 0.890005 1.879898 111 111 111
-1.810529 1.050282 1.056367 113 113 113
-1.458178 0.668517 1.056367 113 113 113
-1.843309 1.373511 1.461763 113 113 113
-1.138607 0.609983 1.461763 113 113 113
-1.523738 1.314976 1.867158 113 113 113
-1.171387 0.933212 1.867158 113 113 113
-1.167233 0.715380 0.702482 82 82 82
-0.901235 0.583841 0.702482 82 82 82
-1.206737 0.970215 0.849304 82 82 82
-0.674741 0.707137 0.849304 82 82 82
-0.980243 1.093511 0.996126 82 82 82
-0.714245 0.961972 0.996126 82 82 82
-0.774515 0.615303 0.714000 77 77 77
-0.486256 0.601248 0.714000 77 77 77
-0.907866 0.843398 0.830111 77 77 77
-0.331347 0.815288 0.830111 77 77 77
-0.752957 1.057438 0.946223 77 77 77
-0.464698 1.043383 0.946223 77 77 77
0.552368 0.468144 -0.247770 60 60 60
0.585203 0.615067 -0.247770 60 60 60
0.414643 0.421794 -0.208428 60 60 60
0.480312 0.715639 -0.208428 60 60 60
0.309752 0.522365 -0.169086 60 60 60
0.342586 0.669288 -0.169086 60 60 60
0.512985 0.624595 -0.188136 54 54 54
0.565734 0.458848 -0.188136 54 54 54
0.627439 0.752287 -0.158985 54 54 54
0.732937 0.420793 -0.158985 54 54 54
0.794642 0.714232 -0.129833 54 54 54
0.847391 0.548485 -0.129833 54 54 54
1.209342 0.792698 -0.319994 94 94 94
0.939548 0.660657 -0.319994 94 94 94
1.408264 0.727900 -0.104458 94 94 94
0.868675 0.463818 -0.104458 94 94 94
1.337391 0.531060 0.111078 94 94 94
1.067597 0.399019 0.111078 94 94 94
1.328266 0.543993 -0.420374 100 100 100
1.242493 0.647380 -0.420374 100 100 100
1.303300 0.436006 -0.344469 100 100 100
1.131752 0.642780 -0.344469 100 100 100
1.192559 0.431406 -0.268564 100 100 100
1.106786 0.534793 -0.268564 100 100 100
-1.480096 1.051252 -0.171013 35 35 35
-1.480096 0.712164 -0.171013 35 35 35
-1.481170 1.220795 0.122644 35 35 35
-1.481170 0.542621 0.122644 35 35 35
-1.482243 1.051252 0.416302 35 35 35
-1.482243 0.712164 0.416302 35 35 35
-1.311850 1.065630 0.439359 80 80 80
-0.843043 0.766733 0.439359 80 80 80
-1.410353 1.428233 0.849162 80 80 80
-0.472738 0.830438 0.849162 80 80 80
-1.040049 1.491938 1.258966 80 80 80
-0.571242 1.193040 1.258966 80 80 80
-0.903553 0.947851 0.596854 71 71 71
-0.503517 0.814467 0.596854 71 71 71
-1.021261 1.261401 0.853080 71 71 71
-0.221189 0.994635 0.853080 71 71 71
-0.738934 1.441569 1.109306 71 71 71
-0.338898 1.308186 1.109306 71 71 71
-0.551634 0.960132 0.817394 73 73 73
-0.184502 0.890434 0.817394 73 73 73
-0.687068 1.248510 1.012690 73 73 73
0.047195 1.109113 1.012690 73 73 73
-0.455371 1.467188 1.207986 73 73 73
-0.088239 1.397490 1.207986 73 73 73
0.241177 0.841746 -0.395443 62 62 62
0.111879 0.799753 -0.395443 62 62 62
0.342146 0.750914 -0.389394 62 62 62
0.083549 0.666928 -0.389394 62 62 62
0.313816 0.618089 -0.383345 62 62 62
0.184517 0.576096 -0.383345 62 62 62
0.489216 0.821206 -0.400105 59 59 59
0.351841 0.831089 -0.400105 59 59 59
0.549388 0.697893 -0.388148 59 59 59
0.274638 0.717659 -0.388148 59 59 59
0.472184 0.584463 -0.376191 59 59 59
0.334810 0.594346 -0.376191 59 59 59
0.696216 0.822547 -0.395143 59 59 59
0.557225 0.839210 -0.395143 59 59 59
0.751290 0.693922 -0.390791 59 59 59
0.473308 0.727249 -0.390791 59 59 59
0.667373 0.581961 -0.386439 59 59 59
0.528382 0.598624 -0.386439 59 59 59
0.654354 0.708382 -0.415990 64 64 64
0.736488 0.571497 -0.415990 64 64 64
0.729838 0.846758 -0.390729 64 64 64
0.894106 0.572987 -0.390729 64 64 64
0.887456 0.848248 -0.365468 64 64 64
0.969590 0.711363 -0.365468 64 64 64
0.865289 0.605695 -0.429790 67 67 67
1.029383 0.535954 -0.429790 67 67 67
0.841443 0.777507 -0.388526 67 67 67
1.169630 0.638026 -0.388526 67 67 67
0.981690 0.879579 -0.347261 67 67 67
1.145784 0.809838 -0.347261 67 67 67
1.003524 0.619017 -0.469664 67 67 67
1.192362 0.502496 -0.469664 67 67 67
1.001331 0.826742 -0.391674 67 67 67
1.379007 0.593701 -0.391674 67 67 67
1.187976 0.917947 -0.313683 67 67 67
1.376814 0.801426 -0.313683 67 67 67
-1.531427 1.283938 -0.006420 41 41 41
-1.581870 1.008142 -0.006420 41 41 41
-1.494810 1.419751 0.236113 41 41 41
-1.595695 0.868160 0.236113 41 41 41
-1.508635 1.279769 0.478645 41 41 41
-1.559077 1.003974 0.478645 41 41 41
-1.636798 1.677338 0.168189 48 48 48
-1.440276 1.029249 0.168189 48 48 48
-1.730868 2.002653 0.754673 48 48 48
-1.337824 0.706476 0.754673 48 48 48
-1.628416 1.679879 1.341158 48 48 48
-1.431895 1.031791 1.341158 48 48 48
-1.310695 1.679453 0.247993 67 67 67
-1.217979 1.055656 0.247993 67 67 67
-1.332281 1.995034 0.793580 67 67 67
-1.146849 0.747439 0.793580 67 67 67
-1.261151 1.686817 1.339167 67 67 67
-1.168435 1.063020 1.339167 67 67 67
-1.050080 1.496245 0.506718 69 69 69
-1.029734 1.189303 0.506718 69 69 69
-0.930026 1.658348 0.738963 69 69 69
-0.889335 1.044464 0.738963 69 69 69
-0.789627 1.513509 0.971209 69 69 69
-0.769281 1.206567 0.971209 69 69 69
-0.445292 1.475263 0.709459 60 60 60
-0.631625 1.549397 0.709459 60 60 60
-0.415424 1.279099 0.738512 60 60 60
-0.788090 1.427369 0.738512 60 60 60
-0.571888 1.157070 0.767564 60 60 60
-0.758222 1.231205 0.767564 60 60 60
-0.137442 1.445276 0.635203 72 72 72
-0.336612 1.532762 0.635203 72 72 72
-0.094948 1.271560 0.759058 72 72 72
-0.493289 1.446532 0.759058 72 72 72
-0.251624 1.185329 0.882912 72 72 72
-0.450794 1.272815 0.882912 72 72 72
0.091510 0.948513 -0.393282 57 57 57
0.091025 0.811128 -0.393282 57 57 57
0.210706 1.016786 -0.390773 57 57 57
0.209735 0.742015 -0.390773 57 57 57
0.329417 0.947673 -0.388264 57 57 57
0.328931 0.810288 -0.388264 57 57 57
0.292367 0.950673 -0.391092 58 58 58
0.290783 0.811408 -0.391092 58 58 58
0.413765 1.018933 -0.390513 58 58 58
0.410596 0.740404 -0.390513 58 58 58
0.533579 0.947928 -0.389934 58 58 58
0.531994 0.808664 -0.389934 58 58 58
0.529918 0.764193 -0.391679 58 58 58
0.671242 0.749699 -0.391679 58 58 58
0.471808 0.893826 -0.390557 58 58 58
0.754456 0.864837 -0.390557 58 58 58
0.555023 1.008964 -0.389435 58 58 58
0.696346 0.994470 -0.389435 58 58 58
0.670859 0.907611 -0.391235 55 55 55
0.716791 0.770291 -0.391235 55 55 55
0.766815 1.016049 -0.390658 55 55 55
0.858679 0.741409 -0.390658 55 55 55
0.908703 0.987168 -0.390080 55 55 55
0.954635 0.849848 -0.390080 55 55 55
1.134602 0.814424 -0.398332 57 57 57
1.125924 0.959293 -0.398332 57 57 57
1.013669 0.734485 -0.391433 57 57 57
0.996312 1.024224 -0.391433 57 57 57
0.884058 0.799415 -0.384534 57 57 57
0.875380 0.944284 -0.384534 57 57 57
1.308740 0.794410 -0.394790 61 61 61
1.323741 0.938687 -0.394790 61 61 61
1.176343 0.735258 -0.391201 61 61 61
1.206345 1.023811 -0.391201 61 61 61
1.058947 0.820382 -0.387612 61 61 61
1.073948 0.964659 -0.387612 61 61 61

3 0 1 2
3 1 3 2
3 2 3 4
3 4 3 5
3 6 7 8
3 7 9 8
3 8 9 10
3 10 9 11
3 12 13 14
3 13 15 14
3 14 15 16
3 16 15 17
3 18 19 20
3 19 21 20
3 20 21 22
3 22 21 23
3 24 25 26
3 25 27 26
3 26 27 28
3 28 27 29
3 30 31 32
3 31 33 32
3 32 33 34
3 34 33 35
3 36 37 38
3 37 39 38
3 38 39 40
3 40 39 41
3 42 43 44
3 43 45 44
3 44 45 46
3 46 45 47
3 48 49 50
3 49 51 50
3 50 51 52
3 52 51 53
3 54 55 56
3 55 57 56
3 56 57 58
3 58 57 59
3 60 61 62
3 61 63 62
3 62 63 64
3 64 63 65
3 66 67 68
3 67 69 68
3 68 69 70
3 70 69 71
3 72 73 74
3 73 75 74
3 74 75 76
3 76 75 77
3 78 79 80
3 79 81 80
3 80 81 82
3 82 81 83
3 84 85 86
3 85 87 86
3 86 87 88
3 88 87 89
3 90 91 92
3 91 93 92
3 92 93 94
3 94 93 95
3 96 97 98
3 97 99 98
3 98 99 100
3 100 99 101
3 102 103 104
3 103 105 104
3 104 105 106
3 106 105 107
3 108 109 110
3 109 111 110
3 110 111 112
3 112 111 113
3 114 115 116
3 115 117 116
3 116 117 118
3 118 117 119
3 120 121 122
3 121 123 122
3 122 123 124
3 124 123 125
3 126 127 128
3 127 129 128
3 128 129 130
3 130 129 131
3 132 133 134
3 133 135 134
3 134 135 136
3 136 135 137
3 138 139 140
3 139 141 140
3 140 141 142
3 142 141 143
3 144 145 146
3 145 147 146
3 146 147 148
3 148 147 149
3 150 151 152
3 151 153 152
3 152 153 154
3 154 153 155
3 156 157 158
3 157 159 158
3 158 159 160
3 160 159 161
3 162 163 164
3 163 165 164
3 164 165 166
3 166 165 167
3 168 169 170
3 169 171 170
3 170 171 172
3 172 171 173
3 174 175 176
3 175 177 176
3 176 177 178
3 178 177 179
3 180 181 182
3 181 183 182
3 182 183 184
3 184 183 185
3 186 187 188
3 187 189 188
3 188 189 190
3 190 189 191
3 192 193 194
3 193 195 194
3 194 195 196
3 196 195 197
3 198 199 200
3 199 201 200
3 200 201 202
3 202 201 203
3 204 205 206
3 205 207 206
3 206 207 208
3 208 207 209
3 210 211 212
3 211 213 212
3 212 213 214
3 214 213 215
3 216 217 218
3 217 219 218
3 218 219 220
3 220 219 221
3 222 223 224
3 223 225 224
3 224 225 226
3 226 225 227
3 228 229 230
3 229 231 230
3 230 231 232
3 232 231 233
3 234 235 236
3 235 237 236
3 236 237 238
3 238 237 239
3 240 241 242
3 241 243 242
3 242 243 244
3 244 243 245
3 246 247 248
3 247 249 248
3 248 249 250
3 250 249 251
3 252 253 254
3 253 255 254
3 254 255 256
3 256 255 257
3 258 259 260
3 259 261 260
3 260 261 262
3 262 261 263
3 264 265 266
3 265 267 266
3 266 267 268
3 268 267 269
3 270 271 272
3 271 273 272
3 272 273 274
3 274 273 275
3 276 277 278
3 277 279 278
3 278 279 280
3 280 279 281
3 282 283 284
3 283 285 284
3 284 285 286
3 286 285 287
3 288 289 290
3 289 291 290
3 290 291 292
3 292 291 293
3 294 295 296
3 295 297 296
3 296 297 298
3 298 297 299
3 300 301 302
3 301 303 302
3 302 303 304
3 304 303 305
3 306 307 308
3 307 309 308
3 308 309 310
3 310 309 311
3 312 313 314
3 313 315 314
3 314 315 316
3 316 315 317
3 318 319 320
3 319 321 320
3 320 321 322
3 322 321 323
3 324 325 326
3 325 327 326
3 326 327 328
3 328 327 329
3 330 331 332
3 331 333 332
3 332 333 334
3 334 333 335
3 336 337 338
3 337 339 338
3 338 339 340
3 340 339 341
3 342 343 344
3 343 345 344
3 344 345 346
3 346 345 347
3 348 349 350
3 349 351 350
3 350 351 352
3 352 351 353
3 354 355 356
3 355 357 356
3 356 357 358
3 358 357 359
3 360 361 362
3 361 363 362
3 362 363 364
3 364 363 365
3 366 367 368
3 367 369 368
3 368 369 370
3 370 369 371
3 372 373 374
3 373 375 374
3 374 375 376
3 376 375 377
3 378 379 380
3 379 381 380
3 380 381 382
3 382 381 383
3 384 385 386
3 385 387 386
3 386 387 388
3 388 387 389
3 390 391 392
3 391 393 392
3 392 393 394
3 394 393 395
3 396 397 398
3 397 399 398
3 398 399 400
3 400 399 401
3 402 403 404
3 403 405 404
3 404 405 406
3 406 405 407
3 408 409 410
3 409 411 410
3 410 411 412
3 412 411 413
3 414 415 416
3 415 417 416
3 416 417 418
3 418 417 419
3 420 421 422
3 421 423 422
3 422 423 424
3 424 423 425
3 426 427 428
3 427 429 428
3 428 429 430
3 430 429 431
3 432 433 434
3 433 435 434
3 434 435 436
3 436 435 437
3 438 439 440
3 439 441 440
3 440 441 442
3 442 441 443
3 444 445 446
3 445 447 446
3 446 447 448
3 448 447 449
3 450 451 452
3 451 453 452
3 452 453 454
3 454 453 455
3 456 457 458
3 457 459 458
3 458 459 460
3 460 459 461
3 462 463 464
3 463 465 464
3 464 465 466
3 466 465 467
3 468 469 470
3 469 471 470
3 470 471 472
3 472 471 473
3 474 475 476
3 475 477 476
3 476 477 478
3 478 477 479
3 480 481 482
3 481 483 482
3 482 483 484
3 484 483 485
3 486 487 488
3 487 489 488
3 488 489 490
3 490 489 491
3 492 493 494
3 493 495 494
3 494 495 496
3 496 495 497
3 498 499 500
3 499 501 500
3 500 501 502
3 502 501 503
3 504 505 506
3 505 507 506
3 506 507 508
3 508 507 509
3 510 511 512
3 511 513 512
3 512 513 514
3 514 513 515
3 516 517 518
3 517 519 518
3 518 519 520
3 520 519 521
3 522 523 524
3 523 525 524
3 524 525 526
3 526 525 527
3 528 529 530
3 529 531 530
3 530 531 532
3 532 531 533
3 534 535 536
3 535 537 536
3 536 537 538
3 538 537 539
3 540 541 542
3 541 543 542
3 542 543 544
3 544 543 545
3 546 547 548
3 547 549 548
3 548 549 550
3 550 549 551
3 552 553 554
3 553 555 554
3 554 555 556
3 556 555 557
3 558 559 560
3 559 561 560
3 560 561 562
3 562 561 563
3 564 565 566
3 565 567 566
3 566 567 568
3 568 567 569
3 570 571 572
3 571 573 572
3 572 573 574
3 574 573 575
3 576 577 578
3 577 579 578
3 578 579 580
3 580 579 581
3 582 583 584
3 583 585 584
3 584 585 586
3 586 585 587
3 588 589 590
3 589 591 590
3 590 591 592
3 592 591 593
3 594 595 596
3 595 597 596
3 596 597 598
3 598 597 599
3 600 601 602
3 601 603 602
3 602 603 604
3 604 603 605
3 606 607 608
3 607 609 608
3 608 609 610
3 610 609 611
3 612 613 614
3 613 615 614
3 614 615 616
3 616 615 617
3 618 619 620
3 619 621 620
3 620 621 622
3 622 621 623
3 624 625 626
3 625 627 626
3 626 627 628
3 628 627 629
3 630 631 632
3 631 633 632
3 632 633 634
3 634 633 635
3 636 637 638
3 637 639 638
3 638 639 640
3 640 639 641
3 642 643 644
3 643 645 644
3 644 645 646
3 646 645 647
3 648 649 650
3 649 651 650
3 650 651 652
3 652 651 653
3 654 655 656
3 655 657 656
3 656 657 658
3 658 657 659
3 660 661 662
3 661 663 662
3 662 663 664
3 664 663 665
3 666 667 668
3 667 669 668
3 668 669 670
3 670 669 671
3 672 673 674
3 673 675 674
3 674 675 676
3 676 675 677
3 678 679 680
3 679 681 680
3 680 681 682
3 682 681 683
3 684 685 686
3 685 687 686
3 686 687 688
3 688 687 689
3 690 691 692
3 691 693 692
3 692 693 694
3 694 693 695
3 696 697 698
3 697 699 698
3 698 699 700
3 700 699 701
3 702 703 704
3 703 705 704
3 704 705 706
3 706 705 707
